# xmcd
#
# Track frame offsets:
#	150
#	11402
#	25898
#	38974
#	51833
#	65921
#	78748
#	92485
#	105987
#	120408
#	134413
#	146148
#	160629
#	173463
#	188315
#	201219
#	213256
#	226336
#
# Disc length: 3196 seconds
#
# Revision: 0
# Processed by: cddbd v1.5.2PL0 Copyright (c) Steve Scherf et al.
# Submitted via: dBpowerAMP V4.0
#
DISCID=e70c7a12
DTITLE=Ma Rainey - Presenting Ma Rainey
DYEAR=1900
DGENRE=
TTITLE0=Black Cat, Hoot Owl Blues
TTITLE1=Black Eye Blues
TTITLE2=Blues, Oh Blues (Careless Love)
TTITLE3=Broken Hearted Blues
TTITLE4=Chain Gang Blues
TTITLE5=Dead Drunk Blues
TTITLE6=Down In The Basement
TTITLE7=Hear Me Talking To You
TTITLE8=Jelly Bean Blues
TTITLE9=Leaving This Morning
TTITLE10=Morning Hour Blues
TTITLE11=Oh My Baby Blues
TTITLE12=Oh Papa Blues
TTITLE13=See See Rider Blues
TTITLE14=Stack O'Lee Blues
TTITLE15=Travelling Blues
TTITLE16=Wringin' And Twistin'
TTITLE17=Yonder Come The Blues
EXTD=
EXTT0=
EXTT1=
EXTT2=
EXTT3=
EXTT4=
EXTT5=
EXTT6=
EXTT7=
EXTT8=
EXTT9=
EXTT10=
EXTT11=
EXTT12=
EXTT13=
EXTT14=
EXTT15=
EXTT16=
EXTT17=
PLAYORDER=
